<?xml version="1.0" encoding="UTF-8" standalone="no"?>
<!-- (c) mapshakers 2015, Licence: CC0 1.0 Universal, www.mapshakers.com  -->

<svg
   xmlns:dc="http://purl.org/dc/elements/1.1/"
   xmlns:cc="http://creativecommons.org/ns#"
   xmlns:rdf="http://www.w3.org/1999/02/22-rdf-syntax-ns#"
   xmlns:svg="http://www.w3.org/2000/svg"
   xmlns="http://www.w3.org/2000/svg"
   xmlns:sodipodi="http://sodipodi.sourceforge.net/DTD/sodipodi-0.dtd"
   xmlns:inkscape="http://www.inkscape.org/namespaces/inkscape"
   version="1.1"
   id="fire"
   x="0px"
   y="0px"
   width="256px"
   height="256px"
   viewBox="0 0 256 256"
   style="enable-background:new 0 0 256 256;"
   xml:space="preserve"
   inkscape:version="0.91 r13725"
   sodipodi:docname="fire.svg"><metadata
     id="metadata13"><rdf:RDF><cc:Work
         rdf:about=""><dc:format>image/svg+xml</dc:format><dc:type
           rdf:resource="http://purl.org/dc/dcmitype/StillImage" /></cc:Work></rdf:RDF></metadata><defs
     id="defs11" /><sodipodi:namedview
     pagecolor="#ffffff"
     bordercolor="#666666"
     borderopacity="1"
     objecttolerance="10"
     gridtolerance="10"
     guidetolerance="10"
     inkscape:pageopacity="0"
     inkscape:pageshadow="2"
     inkscape:window-width="1317"
     inkscape:window-height="750"
     id="namedview9"
     showgrid="false"
     inkscape:zoom="0.921875"
     inkscape:cx="-176.81356"
     inkscape:cy="128"
     inkscape:window-x="49"
     inkscape:window-y="18"
     inkscape:window-maximized="1"
     inkscape:current-layer="fire" /><style
     type="text/css"
     id="style3"><![CDATA[
	.st0{fill:#464646;}
	.st1{fill:#D1D1D1;}
]]></style><path
     style="fill:#f2f2f2"
     d="M 130.56492,2.1438142 C 112.176,3.3034438 100.50887,19.687703 87.231331,30.317654 55.473079,59.803986 27.35884,97.014715 20.72621,141.01529 c -5.911137,40.84776 12.225303,86.53746 49.33277,106.57385 14.550866,6.99866 35.04405,-1.04848 38.41425,-17.59325 3.02129,-10.26168 -2.50331,-20.2618 -3.81102,-30.14972 0.13331,-2.28454 0.1777,-5.66847 1.05171,-7.21627 6.82942,8.11528 18.36078,12.94419 28.70217,10.00062 2.65326,5.74425 -1.86037,10.608 -4.2317,15.36578 -6.61992,15.92741 5.28309,37.52372 23.14722,37.47736 18.7567,0.80158 33.93301,-13.06032 46.16194,-25.66899 28.56066,-32.79162 31.58224,-87.12652 2.29997,-120.45252 C 189.57435,95.638192 169.97615,87.569847 164.28279,68.766609 157.66164,52.924107 159.22633,35.494826 155.49049,19.036183 151.33646,9.2788785 141.38155,1.7231715 130.56492,2.1438142 Z"
     id="path5"
     inkscape:connector-curvature="0" /><path
     class="st0"
     d="m 168.48391,116.70737 c -40.6305,-25.562261 -38.18288,-87.010004 -38.18288,-87.010004 0,0 -49.182478,35.711462 -71.960032,81.602604 -20.355389,41.01071 -12.635595,89.93885 23.735063,111.42393 -5.813588,-12.0939 -6.549832,-27.32999 -1.721167,-41.81101 9.356763,-28.05852 34.617186,-52.42328 34.617186,-52.42328 0,0 -0.33484,26.59556 12.45838,47.44552 6.68201,-8.33625 8.74878,-16.96548 8.74878,-16.96548 0,0 18.85059,18.55525 25.04796,38.26277 3.645,11.58266 1.55473,23.20169 -5.42882,31.06405 46.07988,-19.51384 53.20735,-86.09566 12.68553,-111.5891 z"
     id="path7"
     style="fill:#800000"
     inkscape:connector-curvature="0" /></svg>