<?xml version="1.0" encoding="UTF-8" standalone="no"?>
<!-- (c) mapshakers 2015, Licence: CC0 1.0 Universal, www.mapshakers.com  -->

<svg
   xmlns:dc="http://purl.org/dc/elements/1.1/"
   xmlns:cc="http://creativecommons.org/ns#"
   xmlns:rdf="http://www.w3.org/1999/02/22-rdf-syntax-ns#"
   xmlns:svg="http://www.w3.org/2000/svg"
   xmlns="http://www.w3.org/2000/svg"
   xmlns:sodipodi="http://sodipodi.sourceforge.net/DTD/sodipodi-0.dtd"
   xmlns:inkscape="http://www.inkscape.org/namespaces/inkscape"
   version="1.1"
   id="camera"
   x="0px"
   y="0px"
   width="256px"
   height="256px"
   viewBox="0 0 256 256"
   style="enable-background:new 0 0 256 256;"
   xml:space="preserve"
   inkscape:version="0.91 r13725"
   sodipodi:docname="camera.svg"><metadata
     id="metadata3398"><rdf:RDF><cc:Work
         rdf:about=""><dc:format>image/svg+xml</dc:format><dc:type
           rdf:resource="http://purl.org/dc/dcmitype/StillImage" /></cc:Work></rdf:RDF></metadata><defs
     id="defs3396" /><sodipodi:namedview
     pagecolor="#ffffff"
     bordercolor="#666666"
     borderopacity="1"
     objecttolerance="10"
     gridtolerance="10"
     guidetolerance="10"
     inkscape:pageopacity="0"
     inkscape:pageshadow="2"
     inkscape:window-width="1317"
     inkscape:window-height="750"
     id="namedview3394"
     showgrid="false"
     inkscape:zoom="2.4179688"
     inkscape:cx="128"
     inkscape:cy="128"
     inkscape:window-x="49"
     inkscape:window-y="18"
     inkscape:window-maximized="1"
     inkscape:current-layer="camera" /><style
     type="text/css"
     id="style3388"><![CDATA[
	.st0{fill:#464646;}
	.st1{fill:#D1D1D1;}
]]></style><path
     class="st0"
     d="M130.416,106.396c-20.782,0-37.688,16.907-37.688,37.688s16.907,37.688,37.688,37.688  s37.688-16.904,37.688-37.688S151.197,106.396,130.416,106.396z M95.968,98.728c9.417-7.084,21.117-11.29,33.782-11.29  s24.365,4.205,33.782,11.29H236V90.75c0-11-9-20-20-20h-48.727c-0.006-0.888-0.188-1.84-0.582-2.836l-4.922-12.328  c-1.83-4.585-7.367-8.336-12.308-8.336h-41.428c-4.937,0-10.474,3.752-12.305,8.336l-4.923,12.328  c-0.398,0.996-0.578,1.948-0.583,2.836H80.25v-3c0-3.3-2.7-6-6-6h-19.5c-3.3,0-6,2.7-6,6v3H41.5c-11,0-20,9-20,20v7.978H95.968z   M173.797,108.728c7.667,9.622,12.266,21.792,12.266,35.022c0,31.05-25.263,56.313-56.313,56.313S73.438,174.8,73.438,143.75  c0-13.23,4.598-25.4,12.264-35.022H21.5v80.022c0,11,9,20,20,20H216c11,0,20-9,20-20v-80.022H173.797z"
     id="path3392" /></svg>